<svg width="77" height="71" viewBox="0 0 77 71" fill="none" xmlns="http://www.w3.org/2000/svg">
<path d="M21.8303 31.972C21.0656 31.9753 20.3046 31.866 19.5719 31.6477C19.2683 31.5552 19.014 31.3463 18.8649 31.0669C18.7158 30.7875 18.6841 30.4605 18.7768 30.1578C18.8696 29.8551 19.0791 29.6015 19.3594 29.4529C19.6396 29.3042 19.9676 29.2727 20.2712 29.3651C21.029 29.5958 22.6085 29.8503 24.6799 28.9613C25.8514 28.4467 27.0921 28.1061 28.3627 27.9504C30.6787 27.6853 34.0468 27.6676 36.9399 29.0859C36.9682 29.1 36.9993 29.1168 37.0285 29.1336L37.1171 29.1875C37.3854 29.3567 37.5752 29.6252 37.6448 29.934C37.7145 30.2427 37.6582 30.5664 37.4885 30.8338C37.3188 31.1012 37.0495 31.2904 36.7398 31.3599C36.4301 31.4293 36.1055 31.3733 35.8373 31.2041C33.476 30.0668 30.6229 30.0959 28.6392 30.3204C27.6012 30.4504 26.5877 30.7309 25.631 31.1528C24.4338 31.6828 23.1401 31.9616 21.8303 31.972Z" fill="#5054A4"/>
<path d="M47.2527 70.613C46.2369 70.613 45.0457 70.4071 43.6692 69.9944C43.4574 69.9317 43.2438 69.8734 43.0168 69.8124C42.6056 69.7019 42.1801 69.5871 41.7485 69.4324C38.8111 68.3861 28.5233 64.6606 19.4914 60.6566C19.1049 60.4878 18.1894 60.0725 17.03 59.5423C14.8195 58.5332 11.7917 57.152 10.5685 56.6262C10.2809 56.4986 10.0553 56.2632 9.94064 55.9709C9.82595 55.6786 9.8314 55.3531 9.95581 55.0648C10.0802 54.7765 10.3136 54.5487 10.6053 54.4307C10.897 54.3128 11.2236 54.3142 11.5143 54.4347C12.7631 54.9702 15.8051 56.3584 18.0254 57.372C19.1333 57.8775 20.0906 58.314 20.4646 58.4801C29.4167 62.4478 39.6363 66.1496 42.5551 67.1896C42.8972 67.3116 43.2588 67.4097 43.6417 67.5131C43.8731 67.5749 44.1124 67.6394 44.3508 67.7119C46.5667 68.372 48.1718 68.395 48.7542 67.7755C49.3489 67.1419 49.0493 65.5893 48.8215 64.9778C48.7434 64.768 48.7259 64.5406 48.7712 64.3214C48.8166 64.1022 48.9228 63.9002 49.0778 63.7383C49.2328 63.5765 49.4304 63.4614 49.6479 63.4062C49.8655 63.351 50.0942 63.3579 50.3079 63.4261C53.092 64.3151 55.0889 64.2691 55.5188 63.3085C55.962 62.3073 55.1128 60.4605 54.176 59.9152C53.914 59.7633 53.7195 59.5179 53.632 59.2286C53.5445 58.9392 53.5703 58.6276 53.7043 58.3565C53.8384 58.0855 54.0706 57.8752 54.354 57.7683C54.6375 57.6613 54.9512 57.6656 55.2316 57.7803C58.0085 58.9114 60.0985 58.9883 60.8236 57.987C61.3651 57.2377 61.1781 55.8097 60.4212 54.9313C60.3188 54.8124 60.2409 54.6746 60.192 54.5257C60.143 54.3768 60.124 54.2197 60.1359 54.0635C60.1479 53.9073 60.1905 53.7549 60.2615 53.6151C60.3325 53.4753 60.4305 53.3508 60.5497 53.2488C60.6689 53.1467 60.8072 53.0691 60.9565 53.0203C61.1059 52.9715 61.2634 52.9525 61.4201 52.9644C61.5768 52.9763 61.7296 53.0188 61.8699 53.0896C62.0101 53.1604 62.1349 53.258 62.2373 53.3769C63.5385 54.888 64.0915 57.5479 62.7691 59.3859C62.1327 60.2696 60.7128 61.4104 57.7444 60.9765C58.1096 62.0776 58.161 63.2697 57.709 64.2815C57.194 65.4302 55.7156 67.0624 51.4939 66.2052C51.5568 67.2436 51.384 68.4727 50.5056 69.4077C49.7478 70.2109 48.6717 70.613 47.2527 70.613Z" fill="#5054A4"/>
<path d="M61.3332 55.3457C61.0601 55.3459 60.7952 55.253 60.5824 55.0824C60.3696 54.9118 60.2218 54.6737 60.1634 54.4078C60.105 54.1419 60.1396 53.864 60.2615 53.6204C60.3834 53.3768 60.5851 53.182 60.8333 53.0685L64.7882 51.2578C65.0754 51.1328 65.4003 51.1252 65.6932 51.2365C65.986 51.3478 66.2233 51.5692 66.3542 51.8531C66.485 52.137 66.4989 52.4608 66.3929 52.7548C66.2868 53.0488 66.0693 53.2896 65.7871 53.4255L61.8322 55.237C61.6757 55.3088 61.5055 55.3459 61.3332 55.3457Z" fill="#5054A4"/>
<path d="M59.3842 54.5939C59.0771 54.5941 58.7818 54.476 58.5599 54.2643L58.5386 54.244L46.0571 41.8036C46.0438 41.7904 46.0305 41.7771 46.0181 41.763C44.1408 39.704 41.8522 40.236 40.9579 40.5603L40.8941 40.5833C40.6282 40.6787 40.3552 40.7777 40.0769 40.8713L32.3426 43.4791C31.3784 43.8093 30.3562 43.9369 29.3401 43.854C28.324 43.7712 27.3361 43.4795 26.4386 42.9975C25.0949 42.2631 24.2875 41.2672 24.0393 40.0371C23.659 38.147 24.7528 36.2842 25.7375 35.0541C26.2061 34.4696 26.7607 33.9592 27.3826 33.5404C30.4786 31.454 33.5587 29.897 36.5377 28.9143C38.9521 28.119 41.3089 27.6931 43.5398 27.6515C47.4398 27.5817 49.6556 28.712 49.7496 28.7641C52.1755 30.026 55.4719 29.0115 56.1083 28.795C56.4087 28.692 56.7378 28.7122 57.0233 28.8512C57.3088 28.9901 57.5272 29.2365 57.6306 29.536C57.7339 29.8355 57.7136 30.1637 57.5742 30.4483C57.4349 30.7329 57.1878 30.9507 56.8874 31.0537C55.7661 31.4346 51.8582 32.548 48.6443 30.877C48.6301 30.8699 46.7573 29.9429 43.4051 30.041C40.279 30.1294 35.1949 31.1553 28.7254 35.5198C28.3038 35.8035 27.9276 36.1491 27.6095 36.5449C26.6806 37.7069 26.2348 38.8088 26.3881 39.5697C26.4918 40.084 26.8854 40.5223 27.5918 40.9076C28.1988 41.2318 28.8666 41.427 29.5531 41.481C30.2396 41.535 30.9299 41.4466 31.5803 41.2213L39.3155 38.6135C39.569 38.5252 39.8189 38.4368 40.0831 38.3423L40.146 38.3193C41.1954 37.9402 44.8437 36.9505 47.7686 40.1388L60.228 52.5615C60.3934 52.7285 60.5057 52.9405 60.5509 53.1709C60.5961 53.4013 60.5722 53.6398 60.4822 53.8567C60.3921 54.0736 60.2399 54.2592 60.0447 54.3903C59.8494 54.5215 59.6196 54.5923 59.3842 54.5939Z" fill="#5054A4"/>
<path d="M49.9464 65.755C49.7977 65.7548 49.6504 65.7269 49.512 65.6728L33.2493 59.3537C32.9536 59.2387 32.7158 59.0113 32.5882 58.7216C32.4607 58.4318 32.4538 58.1034 32.5691 57.8086C32.6844 57.5137 32.9124 57.2766 33.2031 57.1494C33.4937 57.0223 33.8231 57.0154 34.1188 57.1303L50.3816 63.4495C50.6413 63.5509 50.8574 63.7395 50.9925 63.9828C51.1276 64.226 51.1733 64.5087 51.1218 64.782C51.0702 65.0553 50.9245 65.302 50.7099 65.4797C50.4953 65.6573 50.2253 65.7547 49.9464 65.755Z" fill="#5054A4"/>
<path d="M54.7826 60.0773C54.6487 60.0773 54.5156 60.0549 54.3891 60.011L35.587 53.4771C35.2873 53.3729 35.0413 53.1543 34.9033 52.8694C34.7653 52.5844 34.7464 52.2564 34.8509 51.9576C34.9554 51.6588 35.1747 51.4136 35.4605 51.276C35.7463 51.1384 36.0752 51.1196 36.375 51.2237L55.1771 57.7576C55.4442 57.8503 55.6698 58.0344 55.8138 58.2771C55.9578 58.5199 56.0108 58.8057 55.9635 59.0837C55.9163 59.3618 55.7717 59.6141 55.5555 59.796C55.3393 59.9779 55.0655 60.0776 54.7826 60.0773Z" fill="#5054A4"/>
<path d="M61.3328 55.3469C61.1854 55.347 61.0394 55.3197 60.902 55.2665L38.6662 46.7151C38.3701 46.6012 38.1316 46.3747 38.003 46.0855C37.8744 45.7962 37.8664 45.4679 37.9806 45.1727C38.0949 44.8775 38.322 44.6397 38.6122 44.5115C38.9023 44.3833 39.2317 44.3753 39.5277 44.4892L61.7627 53.0405C62.0236 53.1406 62.2411 53.3285 62.3775 53.5718C62.5139 53.8151 62.5606 54.0983 62.5094 54.3723C62.4583 54.6463 62.3125 54.8938 62.0974 55.0718C61.8823 55.2498 61.6115 55.3472 61.3319 55.3469H61.3328Z" fill="#5054A4"/>
<path d="M7.79602 60.2668C7.34308 60.2665 6.8935 60.1894 6.46649 60.0389L3.45291 58.9784C2.95716 58.8037 2.50079 58.5334 2.10988 58.1827C1.71896 57.8321 1.40117 57.4082 1.17465 56.9351C0.948132 56.462 0.817326 55.949 0.789706 55.4255C0.762086 54.902 0.838194 54.3782 1.01368 53.8841L11.3893 24.637C11.7436 23.6389 12.481 22.822 13.4395 22.3659C14.3979 21.9099 15.4988 21.852 16.5 22.2052L19.5135 23.2656C20.5139 23.6196 21.3326 24.3548 21.79 25.3098C22.2475 26.2648 22.3063 27.3617 21.9537 28.36L11.5763 57.6096C11.2985 58.3875 10.7859 59.0605 10.1091 59.5363C9.4322 60.012 8.6242 60.2673 7.79602 60.2668ZM4.25062 56.7268L7.26421 57.7873C7.66701 57.9293 8.10992 57.9061 8.49553 57.7226C8.88115 57.5392 9.1779 57.2106 9.32054 56.809L19.697 27.5594C19.839 27.1579 19.8154 26.7166 19.6315 26.3324C19.4475 25.9483 19.1182 25.6525 18.7158 25.5101L15.7022 24.4497C15.5025 24.3792 15.2908 24.3487 15.0793 24.36C14.8677 24.3713 14.6605 24.4241 14.4694 24.5154C14.2784 24.6067 14.1073 24.7347 13.966 24.892C13.8247 25.0494 13.7159 25.233 13.6459 25.4323L3.26944 54.682C3.1989 54.8808 3.16832 55.0915 3.17945 55.3021C3.19059 55.5126 3.24321 55.719 3.33432 55.9092C3.42544 56.0995 3.55325 56.2701 3.71047 56.4111C3.86769 56.5522 4.05123 56.6609 4.25062 56.7313V56.7268Z" fill="#5054A4"/>
<path d="M69.1432 58.4686C68.3369 58.4687 67.5494 58.2265 66.8832 57.7736C66.2171 57.3207 65.7034 56.6782 65.409 55.9298L54.0797 27.038C53.6944 26.0514 53.7176 24.9527 54.1442 23.9831C54.5708 23.0135 55.3659 22.2524 56.355 21.8668L59.3313 20.7065C60.3203 20.3212 61.4223 20.3432 62.395 20.7678C63.3676 21.1923 64.1314 21.9846 64.5182 22.9705L75.8475 51.8667C76.039 52.3549 76.1322 52.8759 76.1217 53.4C76.1112 53.9241 75.9973 54.441 75.7864 54.9212C75.5756 55.4014 75.2719 55.8355 74.8927 56.1987C74.5136 56.5619 74.0664 56.8471 73.5767 57.0379L70.6012 58.1982C70.1364 58.3782 69.6419 58.4699 69.1432 58.4686ZM60.7867 22.8176C60.5859 22.8178 60.3868 22.8555 60.2 22.9289L57.2218 24.0892C56.8243 24.2444 56.5049 24.5506 56.3337 24.9405C56.1625 25.3304 56.1536 25.7721 56.3089 26.1685L67.6382 55.0647C67.794 55.4611 68.1013 55.7796 68.4924 55.9504C68.8836 56.1213 69.3268 56.1304 69.7247 55.9758L72.701 54.8155C72.898 54.7388 73.0779 54.6241 73.2305 54.478C73.383 54.3319 73.5052 54.1573 73.5901 53.9641C73.675 53.771 73.7208 53.563 73.7251 53.3522C73.7293 53.1413 73.6918 52.9317 73.6148 52.7353L62.2846 23.8418C62.1665 23.5412 61.9605 23.2829 61.6935 23.1003C61.4264 22.9177 61.1105 22.8192 60.7867 22.8176Z" fill="#5054A4"/>
<path d="M19.6556 25.844C19.3383 25.8438 19.0341 25.718 18.8097 25.4943C18.5854 25.2707 18.4592 24.9674 18.459 24.651V9.69748C18.459 8.8093 18.8126 7.95743 19.4421 7.32898C20.0716 6.70052 20.9256 6.34687 21.8165 6.3457H54.0609C54.9519 6.34664 55.8062 6.70019 56.4359 7.32867C57.0656 7.95715 57.4193 8.80915 57.4193 9.69748V23.276C57.4074 23.5845 57.2761 23.8764 57.053 24.0904C56.8299 24.3044 56.5323 24.424 56.2227 24.424C55.9131 24.424 55.6155 24.3044 55.3924 24.0904C55.1693 23.8764 55.0381 23.5845 55.0262 23.276V9.69748C55.0259 9.44272 54.9244 9.19844 54.7438 9.01822C54.5632 8.83799 54.3182 8.73651 54.0627 8.73605H21.8165C21.5608 8.73628 21.3156 8.83765 21.1348 9.0179C20.954 9.19816 20.8524 9.44257 20.8521 9.69748V24.651C20.8521 24.9674 20.7261 25.2709 20.5017 25.4946C20.2773 25.7183 19.9729 25.844 19.6556 25.844Z" fill="#5054A4"/>
<path d="M45.8168 8.73564C45.6286 8.7357 45.443 8.69149 45.2752 8.60661C45.1073 8.52172 44.9619 8.39855 44.8507 8.24711C44.7396 8.09566 44.6659 7.92021 44.6355 7.73501C44.6052 7.54981 44.6191 7.36009 44.6761 7.18125C44.6903 7.13667 44.6974 7.09017 44.6974 7.0434V3.74022C44.6974 3.41679 44.3481 3.14374 43.9351 3.14374H31.9419C31.5289 3.14374 31.1797 3.41679 31.1797 3.74022V7.0434C31.1796 7.09017 31.1868 7.13667 31.2009 7.18125C31.2485 7.3306 31.2661 7.48783 31.2527 7.64395C31.2393 7.80008 31.1952 7.95204 31.1229 8.09117C31.0505 8.23029 30.9515 8.35386 30.8313 8.45481C30.7111 8.55576 30.5721 8.63212 30.4223 8.67952C30.1197 8.77526 29.7914 8.74726 29.5096 8.60167C29.3701 8.52959 29.2461 8.4308 29.1449 8.31096C29.0436 8.19112 28.967 8.05257 28.9195 7.90322C28.8323 7.62494 28.7886 7.33493 28.7901 7.0434V3.74022C28.7901 2.0957 30.2082 0.757812 31.9464 0.757812H43.9351C45.675 0.757812 47.0905 2.0957 47.0905 3.74022V7.0434C47.0908 7.33512 47.046 7.62513 46.9575 7.90322C46.8806 8.1447 46.7286 8.35551 46.5235 8.50516C46.3185 8.65481 46.071 8.73553 45.8168 8.73564Z" fill="#5054A4"/>
<path d="M27.5426 19.3557C27.4169 19.3558 27.2918 19.3361 27.1722 19.2974C24.2772 18.3613 21.5246 17.0341 18.9912 15.3527C18.8605 15.2657 18.7482 15.1538 18.6609 15.0235C18.5735 14.8932 18.5127 14.7471 18.482 14.5934C18.4513 14.4397 18.4513 14.2815 18.4819 14.1278C18.5126 13.9741 18.5733 13.8279 18.6606 13.6976C18.7479 13.5672 18.86 13.4553 18.9907 13.3683C19.1214 13.2812 19.268 13.2206 19.4221 13.19C19.5763 13.1594 19.735 13.1593 19.8892 13.1899C20.0433 13.2204 20.19 13.2809 20.3207 13.368C22.6724 14.9284 25.2276 16.16 27.9149 17.0281C28.186 17.1159 28.4167 17.2972 28.5656 17.5395C28.7145 17.7818 28.7718 18.0691 28.7271 18.3498C28.6825 18.6304 28.5388 18.8859 28.322 19.0703C28.1052 19.2548 27.8294 19.356 27.5444 19.3557H27.5426Z" fill="#5054A4"/>
<path d="M48.3333 19.3557C48.0484 19.3558 47.7728 19.2544 47.5562 19.0699C47.3395 18.8854 47.196 18.6299 47.1514 18.3493C47.1069 18.0687 47.1642 17.7815 47.3131 17.5393C47.462 17.2971 47.6927 17.1159 47.9637 17.0281C50.6511 16.16 53.2063 14.9285 55.558 13.368C55.822 13.1922 56.1452 13.1282 56.4565 13.19C56.7678 13.2518 57.0418 13.4344 57.2181 13.6976C57.3944 13.9608 57.4586 14.283 57.3966 14.5934C57.3346 14.9038 57.1515 15.1769 56.8875 15.3527C54.3538 17.0342 51.6009 18.3615 48.7056 19.2974C48.5854 19.3364 48.4597 19.3561 48.3333 19.3557Z" fill="#5054A4"/>
<path d="M37.9382 20.9912C36.0253 20.9911 34.1156 20.8348 32.2283 20.5238C32.0724 20.4993 31.9229 20.4443 31.7883 20.362C31.6538 20.2796 31.5369 20.1716 31.4445 20.044C31.352 19.9164 31.2858 19.7719 31.2496 19.6187C31.2134 19.4655 31.208 19.3066 31.2337 19.1513C31.2594 18.996 31.3156 18.8473 31.3992 18.7138C31.4827 18.5803 31.592 18.4646 31.7206 18.3733C31.8492 18.2821 31.9947 18.2171 32.1486 18.1821C32.3025 18.1472 32.4619 18.1429 32.6175 18.1697C36.141 18.7502 39.7363 18.7502 43.2598 18.1697C43.4154 18.1429 43.5748 18.1472 43.7287 18.1821C43.8826 18.2171 44.0281 18.2821 44.1567 18.3733C44.2853 18.4646 44.3946 18.5803 44.4781 18.7138C44.5617 18.8473 44.6179 18.996 44.6436 19.1513C44.6693 19.3066 44.6639 19.4655 44.6277 19.6187C44.5915 19.7719 44.5253 19.9164 44.4328 20.044C44.3404 20.1716 44.2235 20.2796 44.089 20.362C43.9544 20.4443 43.8049 20.4993 43.6489 20.5238C41.7614 20.8348 39.8514 20.9912 37.9382 20.9912Z" fill="#5054A4"/>
<path d="M48.3342 22.9454H43.4593C43.3021 22.9455 43.1464 22.9147 43.0012 22.8548C42.856 22.7949 42.724 22.7071 42.6129 22.5963C42.5018 22.4855 42.4136 22.3539 42.3535 22.2091C42.2935 22.0643 42.2626 21.9091 42.2627 21.7524V15.8893C42.2627 15.5729 42.3888 15.2694 42.6132 15.0457C42.8376 14.822 43.1419 14.6963 43.4593 14.6963H48.3342C48.6515 14.6963 48.9559 14.822 49.1803 15.0457C49.4047 15.2694 49.5308 15.5729 49.5308 15.8893V21.7516C49.531 21.9083 49.5002 22.0636 49.4402 22.2085C49.3801 22.3534 49.292 22.485 49.1809 22.5959C49.0697 22.7068 48.9377 22.7948 48.7924 22.8547C48.6471 22.9147 48.4914 22.9455 48.3342 22.9454ZM44.6514 20.5595H47.1332V17.0831H44.6558L44.6514 20.5595Z" fill="#5054A4"/>
<path d="M32.4243 22.9454H27.5432C27.3859 22.9455 27.2303 22.9147 27.085 22.8548C26.9397 22.7949 26.8077 22.7071 26.6965 22.5963C26.5853 22.4855 26.4971 22.354 26.4369 22.2092C26.3767 22.0644 26.3457 21.9092 26.3457 21.7524V15.8893C26.3459 15.5728 26.4722 15.2693 26.6967 15.0456C26.9213 14.8219 27.2257 14.6963 27.5432 14.6963H32.4243C32.7416 14.6965 33.0458 14.8223 33.2701 15.046C33.4945 15.2696 33.6206 15.5729 33.6208 15.8893V21.7516C33.621 21.9083 33.5901 22.0635 33.53 22.2084C33.4699 22.3532 33.3818 22.4848 33.2707 22.5957C33.1596 22.7065 33.0276 22.7945 32.8824 22.8545C32.7372 22.9145 32.5815 22.9454 32.4243 22.9454ZM28.7415 20.5595H31.2233V17.0831H28.7415V20.5595Z" fill="#5054A4"/>
</svg>
