<svg width="74" height="74" viewBox="0 0 74 74" fill="none" xmlns="http://www.w3.org/2000/svg">
<path d="M34.7228 63.3982H6.54734C3.36934 63.3982 0.78418 60.8208 0.78418 57.6524V6.57879C0.78418 3.41037 3.36934 0.833008 6.54734 0.833008H52.6526C55.8306 0.833008 58.4158 3.41037 58.4158 6.57879V41.0535C58.4158 42.1115 57.5553 42.9687 56.4947 42.9687C55.4341 42.9687 54.5737 42.1115 54.5737 41.0535V6.57879C54.5737 5.52265 53.7119 4.66353 52.6526 4.66353H6.54734C5.48801 4.66353 4.62629 5.52265 4.62629 6.57879V57.6524C4.62629 58.7086 5.48801 59.5677 6.54734 59.5677H34.7228C35.784 59.5677 36.6438 60.4249 36.6438 61.4829C36.6438 62.5409 35.784 63.3982 34.7228 63.3982Z" fill="#5054A4"/>
<path d="M19.3547 21.9012H10.3898C9.3286 21.9012 8.46875 21.044 8.46875 19.986V11.0481C8.46875 9.99007 9.3286 9.13281 10.3898 9.13281H19.3547C20.4159 9.13281 21.2758 9.99007 21.2758 11.0481V19.986C21.2758 21.044 20.4159 21.9012 19.3547 21.9012ZM12.3109 18.0707H17.4337V12.9633H12.3109V18.0707Z" fill="#5054A4"/>
<path d="M19.3547 38.4999H10.3898C9.3286 38.4999 8.46875 37.6426 8.46875 36.5846V27.6467C8.46875 26.5887 9.3286 25.7314 10.3898 25.7314H19.3547C20.4159 25.7314 21.2758 26.5887 21.2758 27.6467V36.5846C21.2758 37.6426 20.4159 38.4999 19.3547 38.4999ZM12.3109 34.6693H17.4337V29.562H12.3109V34.6693Z" fill="#5054A4"/>
<path d="M19.3547 55.0985H10.3898C9.3286 55.0985 8.46875 54.2412 8.46875 53.1832V44.2453C8.46875 43.1873 9.3286 42.3301 10.3898 42.3301H19.3547C20.4159 42.3301 21.2758 43.1873 21.2758 44.2453V53.1832C21.2758 54.2412 20.4159 55.0985 19.3547 55.0985ZM12.3109 51.268H17.4337V46.1606H12.3109V51.268Z" fill="#5054A4"/>
<path d="M48.8106 17.4321H25.758C24.6968 17.4321 23.8369 16.5748 23.8369 15.5168C23.8369 14.4588 24.6968 13.6016 25.758 13.6016H48.8106C49.8712 13.6016 50.7317 14.4588 50.7317 15.5168C50.7317 16.5748 49.8712 17.4321 48.8106 17.4321Z" fill="#5054A4"/>
<path d="M48.8106 34.0307H25.758C24.6968 34.0307 23.8369 33.1735 23.8369 32.1155C23.8369 31.0575 24.6968 30.2002 25.758 30.2002H48.8106C49.8712 30.2002 50.7317 31.0575 50.7317 32.1155C50.7317 33.1735 49.8712 34.0307 48.8106 34.0307Z" fill="#5054A4"/>
<path d="M36.0036 50.6293H25.758C24.6968 50.6293 23.8369 49.7721 23.8369 48.7141C23.8369 47.6561 24.6968 46.7988 25.758 46.7988H36.0036C37.0648 46.7988 37.9246 47.6561 37.9246 48.7141C37.9246 49.7721 37.0648 50.6293 36.0036 50.6293Z" fill="#5054A4"/>
<path d="M56.4946 73.6134C46.9606 73.6134 39.2051 65.8806 39.2051 56.376C39.2051 46.8714 46.9606 39.1387 56.4946 39.1387C66.0285 39.1387 73.784 46.8714 73.784 56.376C73.784 65.8806 66.0285 73.6134 56.4946 73.6134ZM56.4946 42.9692C49.0792 42.9692 43.0472 48.9837 43.0472 56.376C43.0472 63.7684 49.0792 69.7828 56.4946 69.7828C63.9099 69.7828 69.9419 63.7684 69.9419 56.376C69.9419 48.9837 63.9099 42.9692 56.4946 42.9692Z" fill="#5054A4"/>
<path d="M54.2536 63.399C53.7445 63.399 53.2555 63.197 52.8953 62.8379L47.1321 57.0921C46.3817 56.3446 46.3817 55.1314 47.1321 54.3838C47.8826 53.6357 49.0982 53.6357 49.8486 54.3838L54.2535 58.7749L63.1409 49.9137C63.8913 49.1655 65.107 49.1655 65.8574 49.9137C66.6078 50.6612 66.6078 51.8738 65.8574 52.6219L55.6118 62.8379C55.2516 63.197 54.7626 63.399 54.2536 63.399Z" fill="#5054A4"/>
</svg>
