<svg width="54" height="67" viewBox="0 0 54 67" fill="none" xmlns="http://www.w3.org/2000/svg">
<path d="M34.5412 12.9516L30.237 12.3181L28.3182 8.41173C27.9955 7.75361 27.3401 7.34396 26.6075 7.34235H26.6032C25.8723 7.34235 25.2163 7.74932 24.891 8.40584L22.9599 12.3063L18.6535 12.9259C17.9285 13.0298 17.3367 13.5273 17.1087 14.2245C16.8813 14.9211 17.0654 15.673 17.5892 16.1854L20.6997 19.2292L19.957 23.5195C19.8323 24.2419 20.1223 24.9584 20.7141 25.3905C21.3065 25.8221 22.0764 25.8789 22.726 25.5394L26.5802 23.5195L30.4275 25.5517C30.7105 25.7011 31.0166 25.775 31.3211 25.775C31.7144 25.775 32.105 25.6518 32.4394 25.4098C33.0328 24.9798 33.3255 24.2638 33.203 23.5404L32.4742 19.2479L35.5948 16.2143C36.1202 15.7035 36.307 14.9527 36.0812 14.255C35.8559 13.5572 35.2657 13.0576 34.5412 12.9516ZM30.8395 17.7796C30.3895 18.2182 30.184 18.8506 30.2889 19.4701L30.9471 23.346L27.4728 21.5109C27.1934 21.3631 26.8868 21.2897 26.5802 21.2897C26.2758 21.2897 25.9713 21.3626 25.6942 21.5082L22.214 23.3321L22.8844 19.4567C22.9909 18.8377 22.787 18.2053 22.3376 17.7646L19.5289 15.0159L23.4168 14.4563C24.0391 14.3675 24.5774 13.9776 24.8578 13.4127L26.6022 9.89022L28.3359 13.4191C28.6136 13.9851 29.1513 14.3766 29.772 14.4665L33.6589 15.0384L30.8395 17.7796ZM12.5145 54.5319V58.8576C12.5145 60.6718 13.9892 62.1476 15.8021 62.1476H37.0732C38.8861 62.1476 40.3608 60.6718 40.3608 58.8576V54.5319C40.3608 52.7176 38.8861 51.2418 37.0732 51.2418H15.8021C13.9892 51.2418 12.5145 52.7176 12.5145 54.5319ZM38.1691 54.5319V58.8576C38.1691 59.4627 37.6773 59.9543 37.0732 59.9543H15.8021C15.1979 59.9543 14.7062 59.4627 14.7062 58.8576V54.5319C14.7062 53.9268 15.1979 53.4352 15.8021 53.4352H37.0732C37.6773 53.4352 38.1691 53.9268 38.1691 54.5319ZM52.0272 4.10157H42.3272V1.90821C42.3272 1.30256 41.8365 0.811523 41.2314 0.811523H11.8783C11.2731 0.811523 10.7824 1.30256 10.7824 1.90821V4.10157H1.2189C0.613713 4.10157 0.123047 4.59261 0.123047 5.19826V14.1811C0.123047 20.7221 4.309 26.4454 10.5395 28.4225C10.585 28.4369 10.631 28.4482 10.6781 28.4567L13.19 28.9056C15.1994 32.1078 18.3452 34.5501 22.1717 35.6494V46.7769H12.5097C9.22695 46.7769 6.55581 49.4501 6.55581 52.7348V65.5159C6.55581 66.122 7.04648 66.6125 7.65166 66.6125H45.2236C45.8288 66.6125 46.3195 66.122 46.3195 65.5159V52.7348C46.3195 49.4501 43.6483 46.7769 40.3656 46.7769H30.8208V35.6858C34.6231 34.6153 37.8052 32.1468 39.8529 28.929L42.5632 28.4578C42.6113 28.4492 42.6595 28.4375 42.7066 28.4225C48.9371 26.4454 53.123 20.7221 53.123 14.1811V5.19826C53.123 4.59261 52.6324 4.10157 52.0272 4.10157ZM11.1351 26.3105C5.85646 24.6039 2.31474 19.7384 2.31474 14.1811V6.29494H10.7824V20.4956C10.7824 22.598 11.1979 24.6091 11.9451 26.4552L11.1351 26.3105ZM44.1278 52.7348V64.4192H8.74751V52.7348C8.74751 50.6592 10.4352 48.9703 12.5097 48.9703H40.3656C42.4401 48.9703 44.1278 50.6592 44.1278 52.7348ZM29.4889 33.7592C28.9865 33.87 28.6291 34.3155 28.6291 34.8301V46.7769H24.3634V34.8002C24.3634 34.2888 24.0102 33.8454 23.5126 33.7313C19.7367 32.8652 16.6614 30.5056 14.8263 27.3594C14.8067 27.3269 14.7908 27.2943 14.768 27.2639C13.6226 25.2621 12.9741 22.9493 12.9741 20.4956V3.00489H40.1355V20.4956C40.1355 26.8197 35.6579 32.398 29.4889 33.7592ZM50.9313 14.1811C50.9313 19.7374 47.3907 24.6023 42.1132 26.3094L41.1204 26.4821C41.8942 24.6187 42.3272 22.5945 42.3272 20.4956V6.29494H50.9313V14.1811Z" fill="#5054A4"/>
</svg>
