<svg width="79" height="61" viewBox="0 0 79 61" fill="none" xmlns="http://www.w3.org/2000/svg">
<path fill-rule="evenodd" clip-rule="evenodd" d="M63.7965 24.2131C62.4257 24.2131 61.329 22.8464 61.6489 21.4797L62.0144 19.8397C60.9178 18.883 59.5469 18.0174 60.0953 16.3774C60.6436 14.6918 62.2886 14.8285 63.7051 14.6918C64.2534 13.3706 64.6647 11.7762 66.4011 11.7762C68.1374 11.7762 68.5487 13.3706 69.1427 14.6918C70.5592 14.7829 72.2042 14.6918 72.7525 16.3774C73.2552 18.0174 71.8844 18.883 70.7877 19.8397C71.1076 21.2064 71.7016 22.7553 70.3308 23.7575C68.9142 24.8053 67.6348 23.7575 66.4011 23.0286C65.6243 23.4842 64.7561 24.2131 63.7965 24.2131ZM1.83515 60.6127C1.24112 60.6127 0.78418 60.1571 0.78418 59.5649V50.0436C0.78418 46.308 3.84569 43.3012 7.59262 43.3012H9.10052C5.53638 40.659 6.49595 37.4244 6.31318 33.7344C6.08471 29.9532 9.46608 26.7642 13.1216 26.7642C16.9142 26.7642 19.9757 29.8621 19.9757 33.5977C19.9757 37.2878 20.5698 40.7956 17.1884 43.3012C19.7473 43.3012 21.575 43.3468 23.4942 45.2602C24.1796 41.0234 27.8351 37.8345 32.2218 37.8345H34.6893V37.2878C32.3589 35.6933 30.851 33.0055 30.851 29.9987V24.3042C30.851 19.4297 34.8721 15.4207 39.7613 15.4207C44.6963 15.4207 48.6717 19.4752 48.6717 24.3042V29.9987C48.6717 33.0055 47.1638 35.6933 44.8334 37.2878V37.8345H47.3009C51.7332 37.8345 55.3888 41.069 56.0742 45.2602C57.9933 43.3468 59.8211 43.3012 62.3343 43.3012C58.9529 40.7956 59.5469 37.2878 59.5469 33.5977C59.5469 29.8621 62.6084 26.7642 66.4011 26.7642C70.1937 26.7642 73.2552 29.8621 73.2552 33.5977C73.2552 37.2878 73.8492 40.7956 70.4678 43.3012H71.9757C75.7227 43.3012 78.7842 46.308 78.7842 50.0436V59.5649C78.7842 60.1571 78.2815 60.6127 77.6875 60.6127H1.83515ZM36.8369 41.2512C36.9283 45.0779 42.7315 44.9868 42.7315 41.1601V38.3811C40.858 39.0189 38.6647 39.0189 36.8369 38.3811V41.2512ZM25.5047 58.4715H30.3026V52.5036C30.3026 51.1369 32.4503 51.1369 32.4503 52.5036V58.4715H47.0724V52.5036C47.0724 51.1369 49.22 51.1369 49.22 52.5036V58.4715H54.0636V46.6724C54.0636 42.9823 51.0478 39.9756 47.3009 39.9756H44.8791C44.8791 41.7979 44.8334 43.119 43.554 44.5768C42.6401 45.5791 41.452 46.0802 40.1726 46.2168C37.2482 46.4446 34.6893 44.1212 34.6893 41.1601V39.9756H32.2218C28.5206 39.9756 25.5047 42.9823 25.5047 46.6724V58.4715ZM36.2886 35.7844C40.7666 38.4267 46.5698 35.1922 46.5698 29.9987V25.3064C44.742 25.8076 42.6858 25.762 40.7666 24.8964C38.6647 23.9397 34.9177 24.6231 32.9986 25.1242V29.9987C32.9986 32.3677 34.2323 34.5999 36.2886 35.7844ZM39.7613 17.5618C36.517 17.5618 33.8211 19.8397 33.1357 22.8919C41.9547 20.8875 41.6348 24.7142 46.4327 23.1197C45.8844 19.9763 43.097 17.5618 39.7613 17.5618ZM2.93181 58.4715H5.90193V54.3714C5.90193 53.0047 8.04956 53.0047 8.04956 54.3714V58.4715H18.2394V54.3714C18.2394 53.0047 20.387 53.0047 20.387 54.3714V58.4715H23.3571V50.0436C23.3571 47.4924 21.2552 45.3968 18.6963 45.3968H17.1884C17.1884 46.7635 16.9142 47.9935 15.909 48.9047C13.4415 51.2281 9.10052 49.6336 9.10052 46.0346V45.3968H7.59262C4.98805 45.3968 2.88611 47.4924 2.88611 50.0436V58.4715H2.93181ZM11.1568 42.0712C14.264 43.4379 17.8738 41.2056 17.8738 37.7889V34.6911C13.8527 35.5566 14.3097 32.9599 8.41511 34.4177V37.7889C8.41511 39.7023 9.55747 41.3423 11.1568 42.0712ZM11.2482 44.349V46.0802C11.2938 48.4947 15.0408 48.4947 15.0408 46.0346V44.349C13.807 44.7135 12.4819 44.7135 11.2482 44.349ZM13.1216 28.9054C11.0654 28.9054 9.2833 30.2721 8.64358 32.1855C14.4924 30.9554 14.5838 33.4155 17.7367 32.5044C17.2341 30.4543 15.3606 28.9054 13.1216 28.9054ZM64.5276 44.349V46.1257C64.619 48.5402 68.3202 48.4491 68.3202 46.0346V44.349C66.7209 44.8046 66.0355 44.5768 64.5276 44.349ZM56.1656 58.4715H59.1814V54.3714C59.1814 53.0047 61.2833 53.0047 61.2833 54.3714V58.4715H71.5188V54.3714C71.5188 53.0047 73.6664 53.0047 73.6664 54.3714V58.4715H76.6366V50.0436C76.6366 47.4924 74.5346 45.3968 71.9757 45.3968H70.4221V46.0346C70.4221 48.3124 68.5487 50.0891 66.3097 50.0436C64.1163 49.998 62.38 48.2213 62.38 46.0346V45.3968H60.8721C58.2675 45.3968 56.1656 47.4924 56.1656 50.0436V58.4715ZM64.4362 42.0712C67.4977 43.4379 71.1076 41.2056 71.1076 37.7889V34.6911C67.1322 35.5566 67.5891 32.9599 61.6945 34.4177V37.7889C61.6945 39.7023 62.8369 41.3423 64.4362 42.0712ZM66.4011 28.9054C64.2991 28.9054 62.517 30.2721 61.923 32.1855C67.7719 30.9554 67.8633 33.4155 70.9705 32.5044C70.5135 30.4543 68.6401 28.9054 66.4011 28.9054ZM42.3659 12.8695C41.4063 12.8695 40.5381 12.1406 39.7613 11.6395C38.5276 12.3684 37.2938 13.4162 35.8773 12.414C34.4608 11.4117 35.0548 9.8628 35.3747 8.45055C34.3237 7.53942 32.9072 6.62829 33.4555 4.98826C34.0039 3.34823 35.6489 3.43934 37.0654 3.30267C37.6137 2.02709 38.025 0.432617 39.7613 0.432617C41.4977 0.432617 41.909 2.02709 42.503 3.30267C43.9195 3.43934 45.5645 3.34823 46.1128 4.98826C46.6155 6.67385 45.2446 7.53942 44.148 8.45055C44.4678 9.8628 45.1076 11.3662 43.691 12.414C43.2798 12.6873 42.8228 12.8695 42.3659 12.8695ZM39.7613 2.52821C39.3958 2.52821 39.1216 5.2616 37.8879 5.39827C34.6893 5.67161 34.9177 5.21604 37.2482 7.31164C38.2077 8.13166 36.7912 10.5006 37.1111 10.6828C37.4766 10.9106 39.213 8.86056 40.3097 9.49835C43.0056 11.1384 42.6401 11.4117 41.9547 8.35944C41.6805 7.12941 44.1937 6.03606 44.0566 5.67161C43.9195 5.30716 41.2692 5.89939 40.7666 4.76048C40.6752 4.5327 39.8984 2.52821 39.7613 2.52821ZM15.7262 24.2131C14.8123 24.2131 13.9441 23.4842 13.1216 23.0286C11.9336 23.7575 10.6541 24.8053 9.23761 23.7575C7.82109 22.7553 8.41511 21.2064 8.73497 19.8397C7.684 18.883 6.26748 18.0174 6.81581 16.3774C7.36414 14.6918 9.00914 14.7829 10.4257 14.6918C10.974 13.3706 11.3852 11.7762 13.1216 11.7762C14.9037 11.7762 15.2692 13.3706 15.8633 14.6918C17.2798 14.7829 18.9248 14.6918 19.4731 16.3774C20.0214 18.0174 18.6049 18.883 17.554 19.8397C17.8281 21.2064 18.4678 22.7553 17.0513 23.7575C16.6401 24.0764 16.1831 24.2131 15.7262 24.2131ZM13.1216 20.7052C13.7613 20.7052 15.909 22.4364 15.8176 21.9808C15.2235 18.6096 14.6295 19.4752 17.4169 17.1063C17.7367 16.8329 15.1779 16.7418 15.0408 16.7418C14.0812 16.6507 13.807 15.284 13.213 13.9629C13.0759 13.644 12.7561 14.6462 12.1163 16.104C11.6137 17.2429 8.96344 16.6507 8.82636 17.0152C8.68928 17.3796 11.2482 18.473 10.974 19.703C10.2429 22.8008 9.87733 22.4819 12.5733 20.8875C12.7561 20.7508 12.9388 20.7052 13.1216 20.7052ZM66.4011 20.7052C67.0408 20.7052 69.1884 22.4364 69.097 21.9808C68.4573 18.6096 67.909 19.4752 70.6506 17.1063C71.0162 16.8329 68.4573 16.7418 68.2745 16.7418C67.3606 16.6507 67.0408 15.3296 66.4924 13.9629C66.3097 13.5984 65.5329 15.7396 65.3958 16.104C64.8931 17.2429 62.2429 16.6507 62.1058 17.0152C61.9687 17.3796 64.4819 18.473 64.2077 19.703C63.5223 22.7097 63.1111 22.5275 65.8527 20.8875C66.0355 20.7508 66.2183 20.7052 66.4011 20.7052Z" fill="#5054A4"/>
</svg>
